<svg width="32" height="32" viewBox="0 0 32 32" fill="none" xmlns="http://www.w3.org/2000/svg">
<path d="M4.79922 25.5996H6.39922V27.1996H7.99922V28.7996H17.5992V27.1996H19.1992V23.9996H20.7992V28.7996H23.9992V30.3996H6.39922V28.7996H4.79922V27.1996H3.19922V22.3996H4.79922V25.5996Z" fill="white"/>
<path d="M25.5992 28.7996H23.9992V27.1996H25.5992V28.7996Z" fill="white"/>
<path d="M15.9992 3.19961H17.5992V6.39961H19.1992V11.1996H20.7992V9.59961H22.3992V7.99961H23.9992V11.1996H25.5992V15.9996H27.1992V19.1996H28.7992V23.9996H27.1992V27.1996H25.5992V22.3996H23.9992V14.3996H22.3992V15.9996H20.7992V19.1996H19.1992V14.3996H17.5992V12.7996H12.7992V15.9996H11.1992V17.5996H12.7992V19.1996H14.3992V20.7996H15.9992V22.3996H12.7992V20.7996H9.59922V14.3996H7.99922V17.5996H6.39922V22.3996H4.79922V15.9996H6.39922V11.1996H7.99922V9.59961H9.59922V12.7996H11.1992V9.59961H12.7992V6.39961H14.3992V1.59961H15.9992V3.19961Z" fill="white"/>
</svg>
